PathFileType	4	(X/Y/Z)	Patient4_TMGait_0pt7_01_right_05.trc.trc
DataRate	CameraRate	NumFrames	NumMarkers	Units	OrigDataRate	OrigDataStartFrame	OrigNumFrames
89.171974522293	89.171974522293	5	33	mm	89.171974522293	18	       141
Frame#	Time	Sacral			L.Shoulder			Chest			R.Shoulder			Neck			R.ASIS			L.ASIS			R.Thigh.Superior			R.Thigh.Lateral			R.Thigh.Inferior			R.Patella			L.Thigh.Superior			L.Thigh.Lateral			L.Thigh.Inferior			L.Patella			L.Shank.Superior			L.Shank.Lateral			L.Shank.Inferior			R.Shank.Superior			R.Shank.Lateral			R.Shank.Inferior			R.Heel			R.Midfoot.Superior			R.Midfoot.Lateral			R.Toe			L.Heel			L.Midfoot.Lateral			L.Midfoot.Superior			L.Toe			L.Elbow			L.Wrist			R.Elbow			R.Wrist			
		X1	Y1	Z1	X2	Y2	Z2	X3	Y3	Z3	X4	Y4	Z4	X5	Y5	Z5	X6	Y6	Z6	X7	Y7	Z7	X8	Y8	Z8	X9	Y9	Z9	X10	Y10	Z10	X11	Y11	Z11	X12	Y12	Z12	X13	Y13	Z13	X14	Y14	Z14	X15	Y15	Z15	X16	Y16	Z16	X17	Y17	Z17	X18	Y18	Z18	X19	Y19	Z19	X20	Y20	Z20	X21	Y21	Z21	X22	Y22	Z22	X23	Y23	Z23	X24	Y24	Z24	X25	Y25	Z25	X26	Y26	Z26	X27	Y27	Z27	X28	Y28	Z28	X29	Y29	Z29	X30	Y30	Z30	X31	Y31	Z31	X32	Y32	Z32	X33	Y33	Z33	

18	5.430642857143	704.335477124935	1000.427157490502	486.418149072578	907.039291599559	1431.175017637875	318.876267474439	994.479532029313	1353.028175127196	485.577116944580	900.943649546684	1429.710179654853	652.982396546127	898.262876451052	1487.288226017922	474.096249579662	929.176168116253	937.441482844378	610.684533647689	920.470802573097	955.592870237906	334.352304748356	1003.789025454678	769.106350472926	581.184274781253	968.246815112291	648.072601329158	660.272582983564	1052.308633803615	609.556986695980	575.809908519191	1090.174703953270	529.273745964410	595.636314333720	920.936128428171	728.607580158152	366.300416918589	802.327215746165	634.882816457940	305.437571762884	859.249215673072	541.494727495014	371.925094592367	842.522792100458	475.977558778420	384.003591166362	809.335985375371	409.324841541134	376.756930564108	707.019231318594	306.199741554268	326.795423408488	739.231680107436	191.883845161546	403.341358350758	1077.239962623789	441.709867936570	608.175959947247	1031.316075755980	326.490333551481	675.255195219213	1103.354018060311	243.089543737280	622.017301301909	1019.606047002894	50.823580589633	594.909193985313	1178.454799763152	131.848792476878	635.031434386622	1103.469919723761	52.311490624296	668.443705259256	1305.217476370320	100.230558576204	663.699921118173	593.508517079782	44.838983842707	442.755880649138	670.830785810707	38.475961662893	366.536669508368	755.033922317083	96.280427039273	395.896284913871	882.332593323196	38.466521824577	373.187423845645	966.400935533020	1115.923754496028	156.648542682083	1208.381578802732	1149.665837924143	218.788931648130	724.636865856229	1132.771893608573	750.732438948654	667.986610796876	876.022334876929	741.857517842158	
19	5.441857142857	706.236164472252	998.098961263102	487.921965310185	906.061494573004	1429.748498431014	319.708498181336	994.126066893184	1352.397925925781	486.423795838130	900.337457823796	1428.744123233097	653.762549489237	897.139850589431	1485.922008703700	474.899711491147	931.356666948032	935.852897801939	611.842745994321	922.429091761972	954.244090579795	335.773645796904	1004.840720916930	765.675815055379	582.252150759084	967.912501902875	644.702893895187	660.805843726027	1051.266979979416	605.930484897818	575.854310623789	1088.245020807932	526.443662914726	594.934430855059	921.016846455767	726.867457337312	366.969495506243	801.298353720787	634.258369528358	306.098102768726	857.408442544853	540.199979582457	372.253162212568	839.866108008741	474.520649189671	384.247167940222	805.790486959800	408.257313061472	376.834677771847	701.880909745582	306.626984605018	326.799142859848	732.784037047477	191.729521786939	403.018772813002	1076.822098973157	438.771387956695	607.398329706734	1032.292831164670	322.627902262040	673.665567183641	1105.575355731694	240.491177632320	620.060435420477	1024.074181680803	48.058758669043	592.015862863247	1182.537187405646	129.663776842802	632.376696528225	1107.830088337134	49.857868362830	665.501807643390	1309.210839504647	98.452320050415	660.701236916625	585.691911255535	45.762303937210	442.488102336838	663.020730491879	38.773882656113	366.380138195765	747.402694228251	96.431344702525	395.569285463536	874.444911759553	38.325468626288	373.178243136863	968.688079072095	1115.357409490265	157.375280516172	1209.184038006996	1154.242890579454	221.447161366325	722.999111267206	1133.102626865620	751.874401279243	665.027427683942	876.535629289772	743.466315063581	
20	5.453071428571	708.320174311461	995.757266494898	489.647341866868	905.044298869085	1428.273995844273	320.618296763154	993.794985315150	1351.805039387055	487.361583232340	899.700781353412	1427.769605580161	654.645747995608	895.998561111454	1484.555438490301	475.813131415080	933.673514578788	934.260382507765	613.215956919150	924.539768614216	952.887623554319	337.364066394185	1006.465950777144	762.605327401002	583.561731443852	967.907616251955	641.373853602691	661.007032582030	1051.066518982006	602.750436051204	576.040968031551	1086.833127644512	523.527587722517	594.183601501192	921.414284677614	725.158848427803	367.736243748664	800.670438651766	633.640961462634	306.864413585400	856.083615087552	538.891106458813	372.594364882895	837.730058158695	472.975030336750	384.493993796165	802.666785240216	407.133476320848	376.904225515176	697.027123233491	307.181085862966	326.791265969405	726.481919307249	191.637816896967	402.605421902959	1076.291304411861	435.534144629234	606.369182982271	1032.042063412904	318.890787351694	671.588041401572	1105.820643892980	237.448038145337	617.721171429170	1024.788074106886	45.961616751793	588.695846510216	1183.512569702897	126.613687397395	629.319858074069	1108.335422276210	47.448503981191	662.244481574943	1309.716258243994	94.629190940656	657.457293464062	577.898979635666	46.879343041434	442.140106841011	655.234986627482	39.108226147782	366.167638137786	739.839632786136	96.627659747045	395.130075621217	866.575763673910	38.191143349930	373.162639926715	970.456204779013	1114.501505724378	158.304259737468	1209.613239596840	1157.724421389821	224.025787488608	722.254971437627	1132.765475617492	753.260060664325	663.738652378860	876.202396227366	745.292626704243	
21	5.464285714286	710.571675573543	993.474969915538	491.595855864529	904.041036847205	1426.787928618935	321.615445260829	993.519931428912	1351.276141729082	488.406091866016	899.061820868940	1426.826364302744	655.643862196393	894.890690334258	1483.233511942975	476.839881152431	936.130220840209	932.710001747979	614.800834489821	926.759721225864	951.568229071588	339.111060457685	1008.652696814808	759.914833884914	585.105444595462	968.178243945698	638.144537954162	660.889113538020	1051.668813741295	600.037316936554	576.378126482951	1085.946654114601	520.583381540042	593.350373691342	922.099509550728	723.521335207197	368.560707727626	800.410042970719	633.058338784676	307.730530127083	855.275077573009	537.594583031659	372.919514869194	836.140824278203	471.352503687536	384.701240313738	799.962470801043	405.978543979914	376.947045010052	692.456498848649	307.892739300711	326.779316884130	720.339053330154	191.634495337272	402.093813312042	1075.726091250220	432.095415675082	605.109349066354	1030.838394189592	315.309073649978	669.186288407590	1104.413030422276	234.025797352076	615.107689737196	1022.233544058918	44.391796632970	585.239005142082	1181.811661765840	122.854715015665	625.972242565841	1105.555123377074	45.115990440299	658.906509969744	1307.291566709288	89.123064145402	654.023159598698	570.138602193668	48.224044352295	441.711919508816	647.476074365838	39.486593960701	365.899371996568	732.365986636438	96.865516161268	394.566153372002	858.727646306946	38.072897945077	373.139788374334	971.686022219191	1113.351996143605	159.452062397958	1209.715899969764	1160.070830098102	226.521392217342	722.432924324593	1131.772686427594	754.881656606315	664.154935717679	875.051245217645	747.284239050224	
22	5.475500000000	712.961718714004	991.329963493760	493.756505450987	903.102911801358	1425.338078720062	322.709841000034	993.335937067910	1350.843146275049	489.568235233194	898.460335939753	1425.961666828465	656.766552886024	893.871649269571	1482.008678578978	477.981261512221	938.724246047156	931.257962207774	616.579461806854	929.043723295006	950.338437100238	340.998129285264	1011.346974397364	757.612713006337	586.854831731492	968.683402618536	635.105963340999	660.525834215261	1052.971582270272	597.792163965124	576.868849063921	1085.554724235017	517.684163239762	592.442324806691	923.041443975818	722.001845024770	369.402521286354	800.483370921923	632.536168111179	308.690898163686	854.987336477717	536.340410447297	373.203849194272	835.134900771645	469.666522919481	384.822600935140	797.682341628521	404.820632419842	376.945345109061	688.175007467716	308.795763288977	326.775259895767	714.380999019942	191.748266950136	401.480318316678	1075.187165435000	428.588984335835	603.696166548474	1028.978032157952	311.951481116419	666.672209594129	1101.726044662438	230.365783794076	612.375362081605	1017.040910613299	43.250400092933	581.931175776768	1177.952803110365	118.649112258100	622.494509423164	1100.184388641965	42.938399722907	655.721728517568	1302.573827245760	82.455669352942	650.494692304273	562.425372218647	49.839894523055	441.207566485917	639.748259711728	39.925559914321	365.578737629019	725.010486686504	97.138534141342	393.868747678353	850.902389208294	37.979662146543	373.110061904174	972.359757850978	1111.922611395101	160.835208238337	1209.534347808638	1161.244108633715	228.933301383005	723.551772357891	1130.174323075385	756.726882797498	666.287180395345	873.151200180107	749.409222940649	
